PathFileType	4	(X/Y/Z)	c:/Users/goper/Files/vsCode/490R/osim_files/C07/C07_Slow_02.trc
DataRate	CameraRate	NumFrames	NumMarkers	Units                	OrigDataRate	OrigDataStartFrame	OrigNumFrames
250.00	250.00	7	36	mm	250.0	1746	3491
                Frame#	Time	LPSIS			LASIS			LTH1			LTH2			LTH3			LTH4			LLFE			LMFE			LSH1			LSH2			LSH3			LSH4			LLMAL			LMMAL			LCAL			LMTP5			LTOE			LMTP1			RPSIS			RASIS			RTH1			RTH2			RTH3			RTH4			RLFE			RMFE			RSH1			RSH2			RSH3			RSH4			RLMAL			RMMAL			RCAL			RMTP1			RTOE			RMTP5		
		X1	Y1	Z1	X2	Y2	Z2	X3	Y3	Z3	X4	Y4	Z4	X5	Y5	Z5	X6	Y6	Z6	X7	Y7	Z7	X8	Y8	Z8	X9	Y9	Z9	X10	Y10	Z10	X11	Y11	Z11	X12	Y12	Z12	X13	Y13	Z13	X14	Y14	Z14	X15	Y15	Z15	X16	Y16	Z16	X17	Y17	Z17	X18	Y18	Z18	X19	Y19	Z19	X20	Y20	Z20	X21	Y21	Z21	X22	Y22	Z22	X23	Y23	Z23	X24	Y24	Z24	X25	Y25	Z25	X26	Y26	Z26	X27	Y27	Z27	X28	Y28	Z28	X29	Y29	Z29	X30	Y30	Z30	X31	Y31	Z31	X32	Y32	Z32	X33	Y33	Z33	X34	Y34	Z34	X35	Y35	Z35	X36	Y36	Z36

1746	6.98000	-1785.69043	995.85327	337.12473	-1958.74744	974.65106	404.12097	-1927.04797	771.20117	458.21259	-1951.35071	695.75391	459.53510	-1979.94263	626.11542	449.06995	-2025.26953	727.04852	441.60690	-2004.07922	508.16336	415.47055	-2020.88293	499.72067	294.07828	-2043.53296	321.13730	418.54507	-2051.73535	273.07758	404.26974	-2080.23706	340.10236	412.18375	-2095.63818	299.77618	406.43625	-2124.43481	107.49303	361.76971	-2146.24170	144.96213	295.16110	-2093.53076	36.76251	306.85818	-2272.39307	66.61616	381.56238	-2318.78516	108.17934	331.88077	-2294.11450	93.67620	278.15536	-1785.70471	1004.12946	236.28430	-1939.85254	964.13324	147.83977	-1862.95996	820.21967	102.85243	-1846.05969	742.96533	108.49599	-1830.03003	663.65100	122.92374	-1918.34668	731.99823	135.28423	-1773.70630	496.27667	173.15710	-1794.60193	506.50693	281.40262	-1668.02332	333.01892	187.67328	-1684.44958	279.09290	182.16075	-1726.87805	320.77490	175.51443	-1716.36768	278.03491	183.18121	-1632.58142	112.01236	248.55141	-1678.15845	121.43793	314.97549	-1587.09583	62.39315	304.19135	-1795.75269	36.43447	300.89633	-1811.79163	45.81104	249.96161	-1755.22009	34.92131	197.30939
1747	6.98400	-1789.50427	995.48828	336.94351	-1962.68567	974.18964	404.02805	-1930.04041	770.54510	457.78824	-1954.04199	694.99371	458.85904	-1982.33655	625.29218	448.23660	-2028.30127	726.05310	441.67029	-2006.51074	507.37515	414.77771	-2023.75000	498.97733	293.47772	-2046.66003	320.29651	417.55252	-2055.29541	272.06873	403.35147	-2083.03882	339.39664	411.29507	-2098.90747	299.17267	405.59665	-2128.75195	107.02281	360.18451	-2150.78809	144.99167	293.93317	-2098.54370	36.60558	305.01245	-2277.02295	67.23556	380.55029	-2323.17993	109.02198	331.21002	-2299.03052	94.80790	277.51401	-1789.59656	1003.67926	236.21626	-1943.79224	963.82092	147.64546	-1864.79053	820.62402	101.99257	-1849.73767	742.64087	108.32202	-1833.70947	663.43463	122.67767	-1922.15259	731.66766	135.19547	-1777.03882	496.09659	172.86525	-1797.96680	506.38510	281.06284	-1670.34399	333.51065	187.22954	-1686.53467	279.45645	181.83725	-1729.07825	320.77954	175.37000	-1718.37817	278.17471	183.03180	-1633.05347	112.86142	248.13425	-1678.74146	121.96481	314.87347	-1587.25610	63.29955	304.08008	-1795.80884	36.46657	300.87363	-1811.82617	45.73618	249.89116	-1755.24109	34.91486	197.26767
1748	6.98800	-1793.44824	994.99695	336.86414	-1966.65784	973.74780	403.91949	-1933.07581	769.91803	457.37720	-1956.82874	694.28113	458.20709	-1984.88586	624.46057	447.41702	-2031.19727	725.20148	441.68414	-2009.06189	506.56039	414.19501	-2026.75427	498.32950	292.90512	-2049.46753	319.40863	416.57593	-2055.61816	272.32965	402.05377	-2086.04175	338.44135	410.30353	-2100.32129	297.50549	404.03113	-2132.66553	106.48121	358.58371	-2155.10376	144.86287	292.71326	-2103.26440	36.43488	303.06955	-2280.96826	67.51213	379.69974	-2327.13379	109.51599	330.87469	-2303.64697	95.51923	276.90396	-1793.42773	1003.22028	236.09195	-1947.65820	963.50623	147.51733	-1868.67273	820.40356	101.79481	-1853.48682	742.40503	108.18324	-1837.42639	663.16998	122.58270	-1925.89502	731.33997	135.06335	-1780.50293	495.86841	172.53986	-1801.36096	506.20288	280.68579	-1672.70312	333.94897	186.83432	-1688.48840	279.76450	181.58670	-1731.40308	320.85632	175.09598	-1720.43750	278.30673	182.83751	-1633.61426	113.63213	247.92601	-1679.22095	122.84841	314.66486	-1587.44836	64.42022	303.88846	-1795.87744	36.52598	300.87338	-1811.87146	45.63823	249.80980	-1755.28931	34.89331	197.25211
1749	6.99200	-1797.28235	994.62994	336.72574	-1970.66223	973.29254	403.82785	-1936.09595	769.28705	456.93759	-1959.70020	693.59772	457.59039	-1987.61011	623.65161	446.67859	-2034.36951	724.33441	441.54034	-2010.84521	505.57123	414.46478	-2030.05981	497.75430	292.28085	-2052.34937	318.49149	415.59195	-2061.58228	270.34692	401.20282	-2088.76270	337.82339	409.63501	-2105.00049	297.60394	403.80521	-2136.21436	105.93920	357.01260	-2159.81006	144.39771	291.63474	-2107.20532	36.76002	300.87170	-2284.58618	67.49145	378.81366	-2330.86060	110.01920	330.79941	-2307.72949	95.83025	276.34415	-1797.29846	1002.75543	235.87872	-1951.75146	963.24530	147.35670	-1872.45239	820.16992	101.52378	-1857.38184	742.21826	107.97809	-1841.19763	662.94983	122.38151	-1929.73315	731.05872	134.89009	-1784.00269	495.74832	172.12576	-1804.92639	505.99222	280.24640	-1675.09851	334.43253	186.50031	-1690.50366	280.16473	181.36115	-1733.73962	320.95651	174.83154	-1722.47107	278.45258	182.64389	-1634.20740	114.57052	247.58623	-1679.77893	123.64429	314.39386	-1587.80627	65.40704	303.66336	-1795.91992	36.65000	300.80472	-1811.91968	45.56753	249.76378	-1755.32068	34.90210	197.21161
1750	6.99600	-1801.26843	994.34680	336.56961	-1974.67725	972.87042	403.70981	-1939.15332	768.63660	456.48886	-1962.74121	692.93677	456.99817	-1990.58362	622.94183	445.98746	-2037.65710	723.60120	441.21088	-2013.73438	504.82071	413.78531	-2033.51086	497.20340	291.71552	-2055.08521	317.52655	414.51782	-2061.50928	270.29761	400.06705	-2091.70728	336.48730	408.34442	-2106.06787	295.67694	402.17090	-2140.26611	105.30213	355.71671	-2163.44824	144.23590	290.44107	-2110.83887	36.85495	298.86215	-2287.61743	66.99847	377.93027	-2334.30542	109.95583	330.60953	-2311.46240	95.73249	275.91843	-1801.25708	1002.29565	235.83531	-1955.77576	962.94000	147.17365	-1876.42627	819.93195	101.33938	-1861.21802	741.94836	107.80824	-1845.04272	662.71484	122.11130	-1933.37500	730.96869	134.67444	-1787.52832	495.50110	171.78174	-1808.41528	505.77505	279.87689	-1677.52795	335.02667	186.03329	-1692.45081	280.55136	181.00475	-1736.07373	321.01788	174.63556	-1724.47412	278.61588	182.45293	-1634.85608	115.42798	247.26018	-1680.42444	123.95031	314.05661	-1588.06726	66.68284	303.44952	-1796.30017	36.77199	301.12012	-1811.89319	45.49409	249.76218	-1755.36243	34.89750	197.18074
1751	7.00000	-1805.11328	994.00006	336.36795	-1978.69177	972.47296	403.57297	-1942.47314	768.01251	456.01074	-1966.03064	692.29810	456.41312	-1993.73767	622.35291	445.34906	-2040.96326	722.84015	440.84973	-2016.79651	504.04239	413.17151	-2037.08386	496.77811	291.09686	-2057.79858	316.51065	413.54529	-2064.32202	269.41153	398.78455	-2094.26758	335.61996	407.71664	-2108.85034	294.68896	401.24225	-2142.52393	104.55716	353.85959	-2166.92676	143.89835	289.34479	-2114.11084	36.93733	297.02979	-2290.36035	66.36686	377.22751	-2337.37524	109.30868	330.37128	-2314.91772	95.19451	275.66571	-1805.24805	1001.89307	235.65390	-1959.84363	962.65619	146.99603	-1880.30457	819.75153	101.10595	-1865.10876	741.80634	107.62852	-1848.90112	662.55994	121.96410	-1937.26160	730.74866	134.48055	-1791.11462	495.32462	171.38274	-1812.07056	505.57056	279.49640	-1679.95728	335.54688	185.65552	-1694.55688	281.05478	180.65279	-1738.44104	321.15350	174.34669	-1726.51611	278.78864	182.20840	-1635.29980	116.49738	246.81935	-1681.20605	124.70293	313.24789	-1588.23572	67.86272	303.27490	-1796.07739	36.70944	300.53638	-1811.90479	45.40295	249.77010	-1755.46082	34.90290	197.15509
1752	7.00400	-1809.14038	993.61566	336.05045	-1982.69836	972.03394	403.46793	-1946.02734	767.43268	455.46970	-1969.52930	691.69604	455.81369	-1997.07727	621.79120	444.74277	-2044.43091	722.22729	440.49191	-2019.88757	503.35034	412.49002	-2040.65356	496.32043	290.58621	-2060.25928	315.48361	412.46579	-2067.04736	268.20215	397.82968	-2097.12109	334.36853	406.55954	-2111.51196	293.66122	400.30304	-2145.23071	103.77332	352.41797	-2170.16235	143.28389	288.23450	-2116.67725	37.17148	295.35974	-2292.77710	65.40929	376.39606	-2340.12622	108.25277	330.12692	-2317.69360	94.19120	275.21494	-1809.11841	1001.50806	235.41534	-1963.84082	962.33960	146.76125	-1884.25708	819.57489	100.89320	-1868.98474	741.56030	107.37498	-1852.78040	662.37878	121.79134	-1941.06689	730.36072	134.06900	-1794.76404	495.19052	170.90752	-1815.75525	505.39517	278.96707	-1682.42493	336.14514	185.14026	-1696.69080	281.51602	180.29724	-1740.86145	321.25095	174.05362	-1728.65869	279.04575	181.89462	-1635.90979	117.51362	246.36169	-1681.78394	125.67933	313.21567	-1588.52881	69.11674	302.85251	-1796.13953	36.76418	300.50638	-1811.40881	45.47211	250.65233	-1755.48462	34.91485	197.10957
